<?xml version="1.0" encoding="UTF-8"?><svg id="Layer_2" xmlns="http://www.w3.org/2000/svg" xmlns:xlink="http://www.w3.org/1999/xlink" viewBox="0 0 305.78 106.63"><defs><clipPath id="clippath"><path d="M70.35,106.1L17.49,53.3,70.35,.14l53.11,52.83-53.11,53.13ZM50.82,15.91l-11.35,11.36V15.91h11.35Z" fill="#e30613"/></clipPath></defs><g id="Layer_1-2"><g><g><path d="M48.22,4.95l-3.29,3.28h15.89l-3.29-3.28h-9.31Zm-4.66,4.66l-3.28,3.28h25.19l-3.29-3.28h-18.62Zm-4.65,4.65l-3.29,3.28h34.5l-3.29-3.28h-27.92Zm-4.65,4.65l-3.29,3.29h43.81l-3.29-3.29H34.26Zm-4.65,4.66l-3.29,3.29h53.11l-3.28-3.29H29.61Zm-4.66,4.65l-3.29,3.29h62.42l-3.29-3.29H24.95Zm-4.65,4.66l-3.29,3.28H88.74l-3.29-3.28H20.3Zm-4.66,4.65l-3.29,3.28H93.4l-3.29-3.28H15.64Zm-4.65,4.65l-3.29,3.29H98.05l-3.29-3.29H10.99Zm-4.66,4.66l-3.29,3.29H102.7l-3.28-3.29H6.34Zm99.4,6.26l-1.67-1.61H1.68L.04,53.13l1.64,1.64H104.05l-1.37,1.37H3.05l3.29,3.29H99.4l-1.37,1.37H7.7l3.29,3.28H94.74l-1.36,1.37H12.36l3.29,3.29H90.09l-1.37,1.37H17.01l3.29,3.29H85.43l-1.36,1.36H21.66l3.29,3.29h55.83l-1.36,1.37H26.32l3.29,3.28h46.52l-1.37,1.37H30.97l3.29,3.29h37.21l-1.37,1.37H35.62l3.29,3.29h27.91l-1.37,1.37h-25.17L0,53.15,49.58,3.57h6.58l-3.29-3.29,52.87,52.8Zm-46.57,46.59l-1.63,1.64-1.38,1.36h-6.56l-1.36-1.36h9.28l1.65-1.64Zm3-3.02l-1.37,1.37h-15.87l-1.37-1.37h18.6Z" fill="#fff" fill-rule="evenodd"/><polygon points="56.16 3.57 49.58 3.57 52.87 .28 56.16 3.57" fill="#1d1d1b"/><polygon points="48.22 4.95 57.53 4.95 60.82 8.23 44.93 8.23 48.22 4.95" fill="#1d1d1b"/><polygon points="43.56 9.6 62.18 9.6 65.47 12.89 40.28 12.89 43.56 9.6" fill="#1d1d1b"/><polygon points="38.91 14.26 66.83 14.26 70.12 17.54 35.62 17.54 38.91 14.26" fill="#1d1d1b"/><polygon points="34.26 18.9 71.49 18.9 74.78 22.19 30.97 22.19 34.26 18.9" fill="#1d1d1b"/><polygon points="29.61 23.56 76.14 23.56 79.43 26.85 26.32 26.85 29.61 23.56" fill="#1d1d1b"/><polygon points="24.95 28.21 80.79 28.21 84.08 31.5 21.66 31.5 24.95 28.21" fill="#1d1d1b"/><polygon points="20.3 32.87 85.45 32.87 88.74 36.15 17.01 36.15 20.3 32.87" fill="#1d1d1b"/><polygon points="15.64 37.52 90.11 37.52 93.4 40.81 12.36 40.81 15.64 37.52" fill="#1d1d1b"/><polygon points="10.99 42.17 94.76 42.17 98.05 45.47 7.7 45.47 10.99 42.17" fill="#1d1d1b"/><polygon points="6.34 46.83 99.41 46.83 102.7 50.12 3.05 50.12 6.34 46.83" fill="#1d1d1b"/><polygon points="104.06 51.48 105.71 53.13 104.06 54.77 1.68 54.77 .04 53.13 1.68 51.48 104.06 51.48" fill="#1d1d1b"/><path d="M99.41,59.42l3.28-3.29-3.3,3.29h.02ZM3.05,56.14H102.68l-3.27,3.29H6.34l-3.29-3.29Z" fill="#1d1d1b"/><path d="M102.68,56.14l-3.27,3.29,3.27-3.29Z" fill="#1d1d1b"/><path d="M94.76,64.08l3.29-3.28-3.31,3.28h.02ZM7.7,60.79H98.03l-3.27,3.28H10.99l-3.29-3.28Z" fill="#1d1d1b"/><path d="M98.03,60.79l-3.27,3.28,3.27-3.28Z" fill="#1d1d1b"/><path d="M90.11,68.73l3.29-3.29-3.3,3.29h.01Zm-77.75-3.29H93.38l-3.27,3.29H15.64l-3.29-3.29Z" fill="#1d1d1b"/><path d="M93.38,65.44l-3.27,3.29,3.27-3.29Z" fill="#1d1d1b"/><path d="M85.45,73.39l3.29-3.29-3.31,3.29h.02Zm-68.44-3.29H88.72l-3.27,3.29H20.3l-3.29-3.29Z" fill="#1d1d1b"/><path d="M88.72,70.1l-3.27,3.29,3.27-3.29Z" fill="#1d1d1b"/><path d="M80.79,78.04l3.29-3.29-3.3,3.29h.01Zm-59.13-3.29h62.4l-3.28,3.29H24.95l-3.29-3.29Z" fill="#1d1d1b"/><path d="M84.07,74.75l-3.28,3.29,3.28-3.29Z" fill="#1d1d1b"/><path d="M76.14,82.69l3.28-3.28-3.3,3.28h.01Zm-49.83-3.28h53.1l-3.28,3.28H29.61l-3.29-3.28Z" fill="#1d1d1b"/><path d="M79.42,79.41l-3.28,3.28,3.28-3.28Z" fill="#1d1d1b"/><path d="M71.49,87.35l3.29-3.29-3.31,3.29h.02Zm-40.52-3.29h43.79l-3.27,3.29H34.26l-3.29-3.29Z" fill="#1d1d1b"/><path d="M74.76,84.06l-3.27,3.29,3.27-3.29Z" fill="#1d1d1b"/><path d="M66.83,92l3.29-3.29-3.3,3.29h.01Zm-31.21-3.29h34.48l-3.27,3.29h-27.92l-3.29-3.29Z" fill="#1d1d1b"/><path d="M70.1,88.71l-3.27,3.29,3.27-3.29Z" fill="#1d1d1b"/><path d="M62.18,96.65l3.29-3.28-3.31,3.28h.02Zm-21.9-3.28h25.17l-3.27,3.28h-18.62l-3.28-3.28Z" fill="#1d1d1b"/><path d="M65.45,93.37l-3.27,3.28,3.27-3.28Z" fill="#1d1d1b"/><path d="M57.53,101.31l3.29-3.29-3.31,3.29h.02Zm-12.6-3.29h15.87l-3.27,3.29h-9.31l-3.29-3.29Z" fill="#1d1d1b"/><path d="M60.8,98.02l-3.27,3.29,3.27-3.29Z" fill="#1d1d1b"/><path d="M56.16,102.67l-3.28,3.29,3.28-3.29Zm-6.58,0h6.56l-3.27,3.29-3.29-3.29Z" fill="#1d1d1b"/><g><path d="M70.35,106.1L17.49,53.3,70.35,.14l53.11,52.83-53.11,53.13ZM50.82,15.91l-11.35,11.36V15.91h11.35Z" fill="#e30613"/><g clip-path="url(#clippath)"><path d="M70.63,32.84L70.35,.14l4.47,4.44-.36,54.3c0,8.04,6.51,14.54,14.55,14.54s14.53-6.51,14.53-14.54l.02-25.72,19.9,19.81-35.32,35.32L51.65,51.82l18.98-18.97Z" fill="#d0d0d0"/><polygon points="50.82 86.62 39.47 75.27 39.47 31.19 50.82 19.79 50.82 86.62" fill="#d0d0d0"/></g></g></g><g><g><path d="M132.53,99.24v-12.48h3.91v11.28c0,3.68,1.35,5.51,4.06,5.51s4.06-1.84,4.06-5.51v-11.28h3.91v12.48c0,4.93-2.66,7.39-7.98,7.39s-7.97-2.46-7.97-7.39Zm9.23-17.66h3.25v3.25h-3.25v-3.25Zm-2.52,3.25h-3.24v-3.25h3.24v3.25Z" fill="#231f20" fill-rule="evenodd"/><polygon points="152.67 106.29 152.67 86.76 157.49 86.76 164.93 101.37 164.99 101.37 164.99 86.76 168.74 86.76 168.74 106.29 163.95 106.29 156.48 91.68 156.43 91.68 156.43 106.29 152.67 106.29" fill="#231f20" fill-rule="evenodd"/><path d="M172.74,106.29v-19.53h3.92v19.53h-3.92Zm3.58-21.41h-3.25v-3.24h3.25v3.24Z" fill="#231f20" fill-rule="evenodd"/><polygon points="185.59 106.29 178.87 86.76 183.07 86.76 188.08 102.09 188.13 102.09 193.08 86.76 196.98 86.76 190.4 106.29 185.59 106.29" fill="#231f20" fill-rule="evenodd"/><polygon points="199.52 106.29 199.52 86.76 211.05 86.76 211.05 89.84 203.44 89.84 203.44 94.65 210.41 94.65 210.41 97.73 203.44 97.73 203.44 103.21 211.1 103.21 211.1 106.29 199.52 106.29" fill="#231f20" fill-rule="evenodd"/><path d="M218.67,89.84v5.26h1.28c2.76,0,4.14-.91,4.14-2.71,0-1.04-.45-1.77-1.34-2.16-.6-.26-1.53-.39-2.8-.39h-1.28Zm-3.92,16.45v-19.53h4.22c3,0,5.06,.21,6.19,.61,2.01,.73,3.02,2.29,3.02,4.67,0,1.18-.36,2.18-1.09,3.02-.73,.84-1.71,1.34-2.94,1.51v.05c.86,.08,1.56,.75,2.07,2.02l3.14,7.64h-4.37l-2.35-6.1c-.3-.77-.62-1.28-.95-1.54-.39-.32-.98-.48-1.77-.48h-1.25v8.12h-3.92Z" fill="#231f20" fill-rule="evenodd"/><path d="M243.04,87.12l-.36,3.22c-1.29-.56-2.61-.84-3.98-.84-.82,0-1.5,.18-2.04,.56-.69,.47-1.03,1.18-1.03,2.16,0,.88,.73,1.63,2.21,2.26,2.37,.99,3.75,1.62,4.14,1.88,1.48,1.02,2.21,2.48,2.21,4.36,0,2.02-.73,3.53-2.18,4.57-1.29,.9-3.01,1.34-5.15,1.34-1.28,0-2.96-.25-5.01-.75l.36-3.52c1.48,.8,2.95,1.2,4.42,1.2,.86,0,1.63-.2,2.3-.59,.79-.48,1.18-1.13,1.18-1.93,0-.99-.74-1.81-2.22-2.46-2.55-1.14-3.93-1.78-4.14-1.91-1.47-1.01-2.2-2.43-2.2-4.28,0-2.03,.7-3.57,2.12-4.62,1.21-.89,2.78-1.34,4.7-1.34,1.72,0,3.27,.23,4.68,.7Z" fill="#231f20" fill-rule="evenodd"/><path d="M247.4,106.29v-19.53h3.92v19.53h-3.92Zm3.59-21.41h-3.25v-3.24h3.25v3.24Z" fill="#231f20" fill-rule="evenodd"/><polygon points="259.07 106.29 259.07 89.84 253.48 89.84 253.48 86.76 268.59 86.76 268.59 89.84 262.99 89.84 262.99 106.29 259.07 106.29" fill="#231f20" fill-rule="evenodd"/><polygon points="271.08 106.29 271.08 86.76 282.61 86.76 282.61 89.84 275 89.84 275 94.65 281.97 94.65 281.97 97.73 275 97.73 275 103.21 282.66 103.21 282.66 106.29 271.08 106.29" fill="#231f20" fill-rule="evenodd"/><path d="M297.5,87.12l-.36,3.22c-1.29-.56-2.61-.84-3.98-.84-.82,0-1.5,.18-2.04,.56-.7,.47-1.04,1.18-1.04,2.16,0,.88,.74,1.63,2.22,2.26,2.37,.99,3.75,1.62,4.14,1.88,1.47,1.02,2.21,2.48,2.21,4.36,0,2.02-.73,3.53-2.18,4.57-1.28,.9-3,1.34-5.15,1.34-1.28,0-2.95-.25-5-.75l.35-3.52c1.48,.8,2.95,1.2,4.43,1.2,.86,0,1.62-.2,2.3-.59,.78-.48,1.17-1.13,1.17-1.93,0-.99-.74-1.81-2.21-2.46-2.56-1.14-3.94-1.78-4.14-1.91-1.47-1.01-2.21-2.43-2.21-4.28,0-2.03,.71-3.57,2.13-4.62,1.21-.89,2.77-1.34,4.7-1.34,1.72,0,3.27,.23,4.67,.7Z" fill="#231f20" fill-rule="evenodd"/><path d="M301.86,106.29v-19.53h3.91v19.53h-3.91Zm3.58-21.41h-3.25v-3.24h3.25v3.24Z" fill="#231f20" fill-rule="evenodd"/></g><g><polygon points="132.66 77.49 132.66 57.94 136.58 57.94 136.58 66.35 143.64 57.94 148.45 57.94 140.42 67.16 148.79 77.49 143.67 77.49 136.64 68.42 136.58 68.42 136.58 77.49 132.66 77.49" fill="#231f20" fill-rule="evenodd"/><path d="M151.2,70.43v-12.49h3.91v11.29c0,3.68,1.35,5.51,4.06,5.51s4.06-1.84,4.06-5.51v-11.29h3.92v12.49c0,4.93-2.66,7.38-7.97,7.38s-7.97-2.46-7.97-7.38Zm9.23-17.66h3.24v3.24h-3.24v-3.24Zm-2.53,3.24h-3.25v-3.24h3.25v3.24Z" fill="#231f20" fill-rule="evenodd"/><polygon points="171.54 77.49 171.54 57.94 175.46 57.94 175.46 74.41 183.04 74.41 183.04 77.49 171.54 77.49" fill="#231f20" fill-rule="evenodd"/><polygon points="189.08 77.49 189.08 61.03 183.48 61.03 183.48 57.94 198.6 57.94 198.6 61.03 193 61.03 193 77.49 189.08 77.49" fill="#231f20" fill-rule="evenodd"/><path d="M200.95,70.43v-12.49h3.92v11.29c0,3.68,1.35,5.51,4.05,5.51s4.06-1.84,4.06-5.51v-11.29h3.92v12.49c0,4.93-2.65,7.38-7.98,7.38s-7.97-2.46-7.97-7.38Zm9.24-17.66h3.24v3.24h-3.24v-3.24Zm-2.52,3.24h-3.24v-3.24h3.24v3.24Z" fill="#231f20" fill-rule="evenodd"/><path d="M224.87,61.03v5.26h1.29c2.76,0,4.14-.9,4.14-2.71,0-1.05-.44-1.77-1.34-2.15-.59-.27-1.53-.4-2.8-.4h-1.29Zm-3.91,16.46v-19.54h4.22c3,0,5.06,.21,6.19,.62,2.02,.73,3.02,2.29,3.02,4.67,0,1.18-.36,2.18-1.09,3.02-.73,.84-1.71,1.35-2.94,1.51v.05c.86,.08,1.55,.75,2.07,2.02l3.14,7.64h-4.37l-2.35-6.1c-.3-.77-.62-1.29-.95-1.55-.39-.31-.98-.48-1.77-.48h-1.26v8.12h-3.91Z" fill="#231f20" fill-rule="evenodd"/></g><g><path d="M132.33,48.68V29.14h3.92v19.54h-3.92Zm3.58-21.41h-3.25v-3.25h3.25v3.25Z" fill="#231f20" fill-rule="evenodd"/><path d="M151.31,29.5l-.37,3.22c-1.28-.56-2.6-.84-3.97-.84-.82,0-1.5,.19-2.04,.56-.69,.47-1.04,1.18-1.04,2.16,0,.87,.74,1.63,2.21,2.26,2.37,.99,3.75,1.62,4.14,1.87,1.47,1.03,2.21,2.48,2.21,4.37,0,2.01-.73,3.53-2.18,4.56-1.29,.9-3,1.34-5.15,1.34-1.29,0-2.96-.25-5.01-.75l.36-3.52c1.48,.81,2.95,1.2,4.42,1.2,.86,0,1.62-.19,2.3-.58,.79-.49,1.18-1.13,1.18-1.93,0-.99-.74-1.8-2.21-2.46-2.56-1.14-3.94-1.77-4.14-1.9-1.48-1.01-2.21-2.44-2.21-4.29,0-2.03,.7-3.57,2.12-4.62,1.21-.89,2.78-1.35,4.7-1.35,1.72,0,3.28,.24,4.68,.7Z" fill="#231f20" fill-rule="evenodd"/><polygon points="159.56 48.68 159.56 32.22 153.96 32.22 153.96 29.14 169.07 29.14 169.07 32.22 163.48 32.22 163.48 48.68 159.56 48.68" fill="#231f20" fill-rule="evenodd"/><path d="M182.14,41.11l-2.82-8.06h-.06l-2.82,8.06h5.7Zm-12.59,7.56l7.61-19.54h4.43l7.67,19.54h-4.34l-1.67-4.48h-7.92l-1.71,4.48h-4.05Z" fill="#231f20" fill-rule="evenodd"/><polygon points="191.57 48.68 191.57 29.14 196.39 29.14 203.83 43.75 203.89 43.75 203.89 29.14 207.63 29.14 207.63 48.68 202.85 48.68 195.38 34.07 195.32 34.07 195.32 48.68 191.57 48.68" fill="#231f20" fill-rule="evenodd"/><path d="M215.89,39.94v5.65h1.85c2.69,0,4.03-.9,4.03-2.72,0-1.96-1.34-2.94-4.03-2.94h-1.85Zm0-7.72v4.82h1.6c2.46,0,3.69-.8,3.69-2.38,0-1.01-.41-1.7-1.21-2.07-.56-.24-1.42-.36-2.58-.36h-1.51Zm-3.92,16.46V29.14h6.83c1.68,0,3.05,.3,4.09,.9,1.48,.84,2.21,2.21,2.21,4.11,0,1.15-.35,2.1-1.07,2.89-.71,.78-1.65,1.28-2.82,1.48v.05c1.32,.13,2.4,.61,3.22,1.43,.84,.82,1.26,1.83,1.26,3.02,0,2.17-.83,3.72-2.52,4.67-1.16,.66-2.62,.98-4.37,.98h-6.83Z" fill="#231f20" fill-rule="evenodd"/><path d="M228.93,41.62v-12.49h3.92v11.28c0,3.68,1.35,5.51,4.06,5.51s4.05-1.83,4.05-5.51v-11.28h3.92v12.49c0,4.93-2.66,7.38-7.97,7.38s-7.98-2.46-7.98-7.38Z" fill="#231f20" fill-rule="evenodd"/><polygon points="249.27 48.68 249.27 29.14 253.19 29.14 253.19 45.6 260.78 45.6 260.78 48.68 249.27 48.68" fill="#231f20" fill-rule="evenodd"/></g><g><polygon points="136.22 19.87 136.22 3.41 130.62 3.41 130.62 .34 145.74 .34 145.74 3.41 140.14 3.41 140.14 19.87 136.22 19.87" fill="#231f20" fill-rule="evenodd"/><rect x="146.41" y="15.95" width="3.92" height="3.92" fill="#231f20"/><path d="M170.05,16.31l.17,3.28c-1.73,.41-3.22,.61-4.45,.61-3.28,0-5.86-.8-7.72-2.4-2-1.7-3-4.15-3-7.36s.95-5.89,2.85-7.7c1.91-1.83,4.52-2.74,7.87-2.74,1.57,0,3.05,.27,4.42,.81l-.28,3.31c-1.21-.69-2.62-1.04-4.23-1.04-1.98,0-3.56,.68-4.76,2.02-1.19,1.32-1.79,3.01-1.79,5.07s.6,3.69,1.79,5.01c1.2,1.31,2.81,1.96,4.84,1.96,1.81,0,3.24-.27,4.28-.81Z" fill="#231f20" fill-rule="evenodd"/><rect x="172.76" y="15.95" width="3.92" height="3.92" fill="#231f20"/></g></g></g></g></svg>