<?xml version="1.0" encoding="UTF-8"?>
<svg viewBox="0 0 509.58 120.91" xmlns="http://www.w3.org/2000/svg">
<path d="m5.65 102.08c1.02-0.55 2.16-0.83 3.44-0.83 1.9 0 3.53 0.65 4.87 1.94l1.49-1.49c-0.77-0.85-1.7-1.49-2.8-1.93s-2.32-0.66-3.66-0.66c-1.71 0-3.25 0.37-4.62 1.1-1.37 0.74-2.44 1.76-3.22 3.07s-1.16 2.78-1.16 4.42 0.39 3.1 1.16 4.4c0.78 1.3 1.84 2.33 3.2 3.07s2.89 1.12 4.58 1.12c1.2 0 2.35-0.18 3.46-0.55 1.1-0.37 2.07-0.9 2.9-1.58v-6.55h-2.3v5.47c-1.12 0.72-2.43 1.08-3.94 1.08-1.26 0-2.4-0.28-3.42-0.84s-1.81-1.33-2.39-2.32c-0.58-0.98-0.86-2.08-0.86-3.3s0.29-2.34 0.86-3.32 1.37-1.75 2.39-2.3z" />
<path d="M21.77,105.52v-2.14h-2.21v12.72h2.3v-6.34c0-1.38,.36-2.44,1.07-3.18,.71-.74,1.69-1.12,2.94-1.12,.22,0,.4,0,.53,.02v-2.23c-1.12,0-2.07,.19-2.86,.58-.78,.38-1.38,.94-1.78,1.68Z" />
<path d="M33.84,103.27c-1.02,0-1.99,.14-2.9,.42-.91,.28-1.7,.68-2.35,1.21l.96,1.73c.5-.42,1.1-.75,1.82-1,.72-.25,1.46-.37,2.21-.37,1.12,0,1.97,.26,2.54,.79,.58,.53,.86,1.29,.86,2.28v.46h-3.65c-1.78,0-3.07,.34-3.89,1.02-.82,.68-1.22,1.58-1.22,2.7s.43,2.02,1.28,2.71c.86,.69,2,1.03,3.42,1.03,.98,0,1.82-.16,2.53-.47,.71-.31,1.26-.76,1.64-1.36v1.68h2.18v-7.68c0-1.71-.47-3-1.4-3.86-.94-.86-2.28-1.3-4.04-1.3Zm3.14,8.95c-.29,.72-.75,1.28-1.39,1.67-.64,.39-1.4,.59-2.28,.59s-1.57-.18-2.06-.55c-.5-.37-.74-.87-.74-1.51,0-1.31,.98-1.97,2.93-1.97h3.55v1.78Z" />
<path d="M53.33,105.31c-.51-.67-1.15-1.18-1.92-1.52-.77-.34-1.61-.52-2.52-.52-1.23,0-2.34,.27-3.31,.82-.98,.54-1.74,1.3-2.29,2.28-.55,.98-.83,2.1-.83,3.38s.28,2.41,.83,3.4c.55,.98,1.32,1.75,2.29,2.29,.98,.54,2.08,.82,3.31,.82,.94,0,1.81-.18,2.59-.55,.78-.37,1.43-.9,1.94-1.61v2.02h2.21v-17.81h-2.3v7.01Zm-.53,6.78c-.37,.68-.88,1.21-1.54,1.58-.66,.38-1.38,.56-2.18,.56s-1.55-.19-2.2-.56-1.16-.9-1.54-1.58c-.38-.68-.56-1.46-.56-2.34s.19-1.66,.56-2.34c.38-.68,.89-1.2,1.54-1.57,.65-.37,1.38-.55,2.2-.55s1.53,.18,2.18,.55c.66,.37,1.17,.89,1.54,1.57,.37,.68,.55,1.46,.55,2.34s-.18,1.66-.55,2.34Z" />
<path d="m69.55 109.96c0 1.34-0.35 2.38-1.06 3.12-0.7 0.74-1.66 1.1-2.88 1.1-1.1 0-1.95-0.32-2.54-0.95s-0.89-1.56-0.89-2.8v-7.06h-2.3v7.32c0 1.82 0.49 3.2 1.46 4.14 0.98 0.94 2.31 1.4 4.01 1.4 0.9 0 1.72-0.18 2.48-0.54s1.37-0.87 1.84-1.52v1.92h2.18v-12.72h-2.3v6.58z" />
<path d="M80.88,103.27c-1.02,0-1.99,.14-2.9,.42-.91,.28-1.7,.68-2.35,1.21l.96,1.73c.5-.42,1.1-.75,1.82-1,.72-.25,1.46-.37,2.21-.37,1.12,0,1.97,.26,2.54,.79,.58,.53,.86,1.29,.86,2.28v.46h-3.65c-1.78,0-3.07,.34-3.89,1.02-.82,.68-1.22,1.58-1.22,2.7s.43,2.02,1.28,2.71c.86,.69,2,1.03,3.42,1.03,.98,0,1.82-.16,2.53-.47,.71-.31,1.26-.76,1.64-1.36v1.68h2.18v-7.68c0-1.71-.47-3-1.4-3.86-.94-.86-2.28-1.3-4.04-1.3Zm3.14,8.95c-.29,.72-.75,1.28-1.39,1.67-.64,.39-1.4,.59-2.28,.59s-1.57-.18-2.06-.55c-.5-.37-.74-.87-.74-1.51,0-1.31,.98-1.97,2.93-1.97h3.55v1.78Z" />
<path d="M95.23,114.31c-.64,0-1.13-.18-1.48-.55s-.52-.9-.52-1.58v-6.89h3.65v-1.9h-3.65v-2.78h-2.3v2.78h-2.16v1.9h2.16v6.98c0,1.28,.35,2.26,1.06,2.95,.7,.69,1.7,1.03,2.98,1.03,.53,0,1.04-.08,1.54-.23s.91-.37,1.25-.66l-.72-1.66c-.5,.4-1.1,.6-1.8,.6Z" />
<path d="M101.69,97.94c-.45,0-.82,.15-1.12,.44s-.44,.65-.44,1.07,.15,.77,.44,1.06c.3,.29,.67,.43,1.12,.43s.82-.15,1.12-.44c.3-.3,.44-.66,.44-1.09s-.15-.76-.44-1.04c-.3-.28-.67-.42-1.12-.42Z" />
<rect x="100.53" y="103.39" width="2.3" height="12.72" />
<path d="M116.07,104.09c-1-.55-2.13-.83-3.4-.83s-2.4,.28-3.41,.83c-1.01,.55-1.8,1.32-2.36,2.3-.57,.98-.85,2.1-.85,3.35s.28,2.36,.85,3.35c.57,.98,1.36,1.76,2.36,2.32,1.01,.56,2.14,.84,3.41,.84s2.4-.28,3.4-.84c1-.56,1.78-1.33,2.35-2.32,.57-.98,.85-2.1,.85-3.35s-.28-2.36-.85-3.35c-.57-.98-1.35-1.75-2.35-2.3Zm.32,7.99c-.37,.68-.88,1.21-1.52,1.58s-1.38,.56-2.2,.56-1.55-.19-2.2-.56-1.16-.9-1.54-1.58c-.38-.68-.56-1.46-.56-2.34s.19-1.66,.56-2.34c.38-.68,.89-1.2,1.54-1.57,.65-.37,1.38-.55,2.2-.55s1.55,.18,2.2,.55c.65,.37,1.16,.89,1.52,1.57,.37,.68,.55,1.46,.55,2.34s-.18,1.66-.55,2.34Z" />
<path d="m129.26 103.27c-1.01 0-1.91 0.18-2.7 0.53s-1.42 0.86-1.88 1.51v-1.92h-2.21v12.72h2.3v-6.55c0-1.36 0.36-2.4 1.08-3.13s1.7-1.09 2.95-1.09c1.1 0 1.95 0.31 2.54 0.94 0.59 0.62 0.89 1.55 0.89 2.78v7.06h2.3v-7.32c0-1.81-0.48-3.18-1.43-4.12s-2.24-1.4-3.85-1.4z"  />
<path d="M157.29,100.87c-1.25-1.04-2.96-1.56-5.14-1.56h-6.55v16.8h2.4v-5.09h4.15c2.18,0,3.89-.52,5.14-1.56s1.87-2.47,1.87-4.3-.62-3.26-1.87-4.3Zm-1.73,7.09c-.8,.65-1.96,.97-3.48,.97h-4.08v-7.54h4.08c1.52,0,2.68,.32,3.48,.97,.8,.65,1.2,1.58,1.2,2.8s-.4,2.15-1.2,2.8Z" />
<path d="M164.35,105.52v-2.14h-2.21v12.72h2.3v-6.34c0-1.38,.36-2.44,1.07-3.18,.71-.74,1.69-1.12,2.94-1.12,.22,0,.4,0,.53,.02v-2.23c-1.12,0-2.07,.19-2.86,.58-.78,.38-1.38,.94-1.78,1.68Z" />
<path d="M183.74,109.75c0-1.25-.28-2.36-.85-3.35-.57-.98-1.35-1.75-2.35-2.3-1-.55-2.13-.83-3.4-.83s-2.4,.28-3.41,.83c-1.01,.55-1.8,1.32-2.36,2.3-.57,.98-.85,2.1-.85,3.35s.28,2.36,.85,3.35c.57,.98,1.36,1.76,2.36,2.32,1.01,.56,2.14,.84,3.41,.84s2.4-.28,3.4-.84c1-.56,1.78-1.33,2.35-2.32,.57-.98,.85-2.1,.85-3.35Zm-2.88,2.34c-.37,.68-.88,1.21-1.52,1.58s-1.38,.56-2.2,.56-1.55-.19-2.2-.56-1.16-.9-1.54-1.58c-.38-.68-.56-1.46-.56-2.34s.19-1.66,.56-2.34c.38-.68,.89-1.2,1.54-1.57,.65-.37,1.38-.55,2.2-.55s1.55,.18,2.2,.55c.65,.37,1.16,.89,1.52,1.57,.37,.68,.55,1.46,.55,2.34s-.18,1.66-.55,2.34Z" />
<path d="M188.21,97.94c-.45,0-.82,.15-1.12,.44-.3,.3-.44,.65-.44,1.07s.15,.77,.44,1.06,.67,.43,1.12,.43,.82-.15,1.12-.44,.44-.66,.44-1.09-.15-.76-.44-1.04c-.3-.28-.67-.42-1.12-.42Z" />
<path d="M187.05,116.73c0,.74-.16,1.29-.49,1.67-.33,.38-.8,.56-1.4,.56-.77,0-1.39-.2-1.87-.6l-.74,1.78c.32,.26,.72,.45,1.2,.58,.48,.13,1,.19,1.56,.19,1.3,0,2.3-.38,3-1.13s1.06-1.78,1.06-3.1v-13.3h-2.3v13.34Z" />
<path d="M202.21,104.09c-.95-.55-2.04-.83-3.25-.83s-2.31,.28-3.28,.83c-.97,.55-1.73,1.32-2.28,2.32-.55,.99-.83,2.1-.83,3.34s.28,2.37,.85,3.36,1.37,1.76,2.41,2.32c1.04,.55,2.23,.83,3.58,.83,1.06,0,2.01-.18,2.87-.53s1.57-.86,2.15-1.54l-1.27-1.49c-.93,1.02-2.15,1.54-3.67,1.54-1.25,0-2.29-.34-3.13-1.02-.84-.68-1.33-1.58-1.48-2.7h10.32c.03-.29,.05-.52,.05-.7,0-1.28-.27-2.42-.8-3.41s-1.28-1.76-2.23-2.32Zm-7.33,4.76c.13-1.09,.56-1.97,1.31-2.64,.74-.67,1.67-1.01,2.77-1.01s2.03,.34,2.77,1.02c.74,.68,1.18,1.56,1.31,2.63h-8.16Z" />
<path d="m211.71 105.83c0.66-0.37 1.41-0.55 2.24-0.55 0.72 0 1.38 0.15 1.97 0.46 0.59 0.3 1.09 0.76 1.49 1.37l1.75-1.13c-0.5-0.88-1.2-1.55-2.1-2.02-0.9-0.46-1.93-0.7-3.08-0.7-1.3 0-2.45 0.28-3.47 0.83s-1.81 1.32-2.39 2.3-0.86 2.1-0.86 3.35 0.29 2.36 0.86 3.35c0.58 0.98 1.37 1.76 2.39 2.32s2.17 0.84 3.47 0.84c1.15 0 2.18-0.24 3.08-0.71s1.6-1.15 2.1-2.03l-1.75-1.1c-0.4 0.61-0.9 1.06-1.49 1.37-0.59 0.3-1.25 0.46-1.97 0.46-0.83 0-1.58-0.18-2.24-0.55s-1.18-0.89-1.56-1.57-0.56-1.47-0.56-2.36 0.19-1.66 0.56-2.34c0.38-0.68 0.9-1.2 1.56-1.57z" />
<path d="M226.94,114.31c-.64,0-1.13-.18-1.48-.55s-.52-.9-.52-1.58v-6.89h3.65v-1.9h-3.65v-2.78h-2.3v2.78h-2.16v1.9h2.16v6.98c0,1.28,.35,2.26,1.06,2.95,.7,.69,1.7,1.03,2.98,1.03,.53,0,1.04-.08,1.54-.23s.91-.37,1.25-.66l-.72-1.66c-.5,.4-1.1,.6-1.8,.6Z" />
<polygon points="241.44 108.59 249.86 108.59 249.86 106.55 241.44 106.55 241.44 101.39 250.89 101.39 250.89 99.31 239.04 99.31 239.04 116.11 251.23 116.11 251.23 114.02 241.44 114.02" />
<polygon points="259.1 113.59 254.73 103.39 252.33 103.39 257.9 116.11 260.25 116.11 265.82 103.39 263.56 103.39" />
<path d="m272.21 103.27c-1.02 0-1.99 0.14-2.9 0.42s-1.7 0.68-2.35 1.21l0.96 1.73c0.5-0.42 1.1-0.75 1.82-1s1.46-0.37 2.21-0.37c1.12 0 1.97 0.26 2.54 0.79 0.58 0.53 0.86 1.29 0.86 2.28v0.46h-3.65c-1.78 0-3.07 0.34-3.89 1.02s-1.22 1.58-1.22 2.7 0.43 2.02 1.28 2.71c0.86 0.69 2 1.03 3.42 1.03 0.98 0 1.82-0.16 2.53-0.47s1.26-0.76 1.64-1.36v1.68h2.18v-7.68c0-1.71-0.47-3-1.4-3.86-0.94-0.86-2.28-1.3-4.04-1.3zm3.14 8.95c-0.29 0.72-0.75 1.28-1.39 1.67s-1.4 0.59-2.28 0.59-1.57-0.18-2.06-0.55-0.74-0.87-0.74-1.51c0-1.31 0.98-1.97 2.93-1.97h3.55v1.78z" />
<rect x="281.92" y="98.3" width="2.3" height="17.81" />
<path d="m298.17 109.96c0 1.34-0.35 2.38-1.06 3.12-0.7 0.74-1.66 1.1-2.88 1.1-1.1 0-1.95-0.32-2.54-0.95s-0.89-1.56-0.89-2.8v-7.06h-2.3v7.32c0 1.82 0.49 3.2 1.46 4.14 0.98 0.94 2.31 1.4 4.01 1.4 0.9 0 1.72-0.18 2.48-0.54s1.37-0.87 1.84-1.52v1.92h2.18v-12.72h-2.3v6.58z" />
<path d="m309.5 103.27c-1.02 0-1.99 0.14-2.9 0.42s-1.7 0.68-2.35 1.21l0.96 1.73c0.5-0.42 1.1-0.75 1.82-1s1.46-0.37 2.21-0.37c1.12 0 1.97 0.26 2.54 0.79 0.58 0.53 0.86 1.29 0.86 2.28v0.46h-3.65c-1.78 0-3.07 0.34-3.89 1.02s-1.22 1.58-1.22 2.7 0.43 2.02 1.28 2.71c0.86 0.69 2 1.03 3.42 1.03 0.98 0 1.82-0.16 2.53-0.47s1.26-0.76 1.64-1.36v1.68h2.18v-7.68c0-1.71-0.47-3-1.4-3.86-0.94-0.86-2.28-1.3-4.04-1.3zm3.14 8.95c-0.29 0.72-0.75 1.28-1.39 1.67s-1.4 0.59-2.28 0.59-1.57-0.18-2.06-0.55-0.74-0.87-0.74-1.51c0-1.31 0.98-1.97 2.93-1.97h3.55v1.78z" />
<path d="M323.85,114.31c-.64,0-1.13-.18-1.48-.55s-.52-.9-.52-1.58v-6.89h3.65v-1.9h-3.65v-2.78h-2.3v2.78h-2.16v1.9h2.16v6.98c0,1.28,.35,2.26,1.06,2.95,.7,.69,1.7,1.03,2.98,1.03,.53,0,1.04-.08,1.54-.23s.91-.37,1.25-.66l-.72-1.66c-.5,.4-1.1,.6-1.8,.6Z" />
<rect x="329.16" y="103.39" width="2.3" height="12.72" />
<path d="M330.31,97.94c-.45,0-.82,.15-1.12,.44-.3,.3-.44,.65-.44,1.07s.15,.77,.44,1.06,.67,.43,1.12,.43,.82-.15,1.12-.44c.3-.3,.44-.66,.44-1.09s-.15-.76-.44-1.04c-.3-.28-.67-.42-1.12-.42Z" />
<path d="M344.7,104.09c-1-.55-2.13-.83-3.4-.83s-2.4,.28-3.41,.83c-1.01,.55-1.8,1.32-2.36,2.3-.57,.98-.85,2.1-.85,3.35s.28,2.36,.85,3.35c.57,.98,1.36,1.76,2.36,2.32,1.01,.56,2.14,.84,3.41,.84s2.4-.28,3.4-.84c1-.56,1.78-1.33,2.35-2.32,.57-.98,.85-2.1,.85-3.35s-.29-2.36-.85-3.35c-.57-.98-1.35-1.75-2.35-2.3Zm.32,7.99c-.37,.68-.88,1.21-1.52,1.58-.65,.38-1.38,.56-2.2,.56s-1.55-.19-2.2-.56c-.65-.38-1.16-.9-1.54-1.58-.38-.68-.56-1.46-.56-2.34s.19-1.66,.56-2.34c.38-.68,.89-1.2,1.54-1.57,.65-.37,1.38-.55,2.2-.55s1.55,.18,2.2,.55c.65,.37,1.16,.89,1.52,1.57,.37,.68,.55,1.46,.55,2.34s-.18,1.66-.55,2.34Z" />
<path d="m357.88 103.27c-1.01 0-1.91 0.18-2.7 0.53s-1.42 0.86-1.88 1.51v-1.92h-2.21v12.72h2.3v-6.55c0-1.36 0.36-2.4 1.08-3.13s1.7-1.09 2.95-1.09c1.1 0 1.95 0.31 2.54 0.94 0.59 0.62 0.89 1.55 0.89 2.78v7.06h2.3v-7.32c0-1.81-0.48-3.18-1.43-4.12s-2.24-1.4-3.85-1.4z" />
<path d="m379.29 99.31-7.61 16.8h2.47l1.85-4.2h8.93l1.85 4.2h2.52l-7.63-16.8h-2.38zm-2.45 10.68 3.62-8.23 3.62 8.23h-7.25z" />
<path d="M401.51,104.08c-.98-.54-2.08-.82-3.31-.82-.94,0-1.81,.18-2.59,.54-.78,.36-1.43,.89-1.94,1.6v-2.02h-2.21v17.38h2.3v-6.58c.53,.67,1.17,1.18,1.93,1.54s1.6,.53,2.51,.53c1.23,0,2.34-.27,3.31-.82,.98-.54,1.74-1.31,2.29-2.29,.55-.98,.83-2.12,.83-3.4s-.28-2.41-.83-3.38c-.55-.98-1.32-1.74-2.29-2.28Zm.23,8c-.38,.68-.89,1.21-1.54,1.58-.65,.38-1.38,.56-2.2,.56s-1.53-.19-2.18-.56-1.17-.9-1.54-1.58c-.37-.68-.55-1.46-.55-2.34s.19-1.66,.56-2.33c.38-.67,.89-1.2,1.54-1.57,.65-.38,1.37-.56,2.17-.56s1.55,.18,2.2,.55c.65,.37,1.16,.89,1.54,1.57,.38,.68,.56,1.46,.56,2.34s-.19,1.66-.56,2.34Z" />
<path d="M417.88,104.08c-.98-.54-2.08-.82-3.31-.82-.94,0-1.81,.18-2.59,.54-.78,.36-1.43,.89-1.94,1.6v-2.02h-2.21v17.38h2.3v-6.58c.53,.67,1.17,1.18,1.93,1.54s1.6,.53,2.51,.53c1.23,0,2.34-.27,3.31-.82,.98-.54,1.74-1.31,2.29-2.29,.55-.98,.83-2.12,.83-3.4s-.28-2.41-.83-3.38c-.55-.98-1.32-1.74-2.29-2.28Zm.23,8c-.38,.68-.89,1.21-1.54,1.58-.65,.38-1.38,.56-2.2,.56s-1.53-.19-2.18-.56-1.17-.9-1.54-1.58c-.37-.68-.55-1.46-.55-2.34s.19-1.66,.56-2.33c.38-.67,.89-1.2,1.54-1.57,.65-.38,1.37-.56,2.17-.56s1.55,.18,2.2,.55c.65,.37,1.16,.89,1.54,1.57,.38,.68,.56,1.46,.56,2.34s-.19,1.66-.56,2.34Z" />
<rect x="424.19" y="98.3" width="2.3" height="17.81" />
<path d="M432.04,97.94c-.45,0-.82,.15-1.12,.44-.3,.3-.44,.65-.44,1.07s.15,.77,.44,1.06,.67,.43,1.12,.43,.82-.15,1.12-.44c.3-.3,.44-.66,.44-1.09s-.15-.76-.44-1.04c-.3-.28-.67-.42-1.12-.42Z" />
<rect x="430.89" y="103.39" width="2.3" height="12.72" />
<path d="M440.86,105.83c.66-.37,1.41-.55,2.24-.55,.72,0,1.38,.15,1.97,.46,.59,.3,1.09,.76,1.49,1.37l1.75-1.13c-.5-.88-1.2-1.55-2.1-2.02-.9-.46-1.93-.7-3.08-.7-1.3,0-2.45,.28-3.47,.83-1.02,.55-1.81,1.32-2.39,2.3-.58,.98-.86,2.1-.86,3.35s.29,2.36,.86,3.35c.58,.98,1.37,1.76,2.39,2.32,1.02,.56,2.17,.84,3.47,.84,1.15,0,2.18-.24,3.08-.71,.9-.47,1.6-1.15,2.1-2.03l-1.75-1.1c-.4,.61-.9,1.06-1.49,1.37-.59,.3-1.25,.46-1.97,.46-.83,0-1.58-.18-2.24-.55s-1.18-.89-1.56-1.57c-.38-.68-.56-1.47-.56-2.36s.19-1.66,.56-2.34c.38-.68,.9-1.2,1.56-1.57Z" />
<path d="m455.92 103.27c-1.02 0-1.99 0.14-2.9 0.42s-1.7 0.68-2.35 1.21l0.96 1.73c0.5-0.42 1.1-0.75 1.82-1s1.46-0.37 2.21-0.37c1.12 0 1.97 0.26 2.54 0.79 0.58 0.53 0.86 1.29 0.86 2.28v0.46h-3.65c-1.78 0-3.07 0.34-3.89 1.02s-1.22 1.58-1.22 2.7 0.43 2.02 1.28 2.71c0.86 0.69 2 1.03 3.42 1.03 0.98 0 1.82-0.16 2.53-0.47s1.26-0.76 1.64-1.36v1.68h2.18v-7.68c0-1.71-0.47-3-1.4-3.86-0.94-0.86-2.28-1.3-4.04-1.3zm3.14 8.95c-0.29 0.72-0.75 1.28-1.39 1.67s-1.4 0.59-2.28 0.59-1.57-0.18-2.06-0.55-0.74-0.87-0.74-1.51c0-1.31 0.98-1.97 2.93-1.97h3.55v1.78z" />
<path d="M470.27,114.31c-.64,0-1.13-.18-1.48-.55s-.52-.9-.52-1.58v-6.89h3.65v-1.9h-3.65v-2.78h-2.3v2.78h-2.16v1.9h2.16v6.98c0,1.28,.35,2.26,1.06,2.95,.7,.69,1.7,1.03,2.98,1.03,.53,0,1.04-.08,1.54-.23s.91-.37,1.25-.66l-.72-1.66c-.5,.4-1.1,.6-1.8,.6Z" />
<rect x="475.58" y="103.39" width="2.3" height="12.72" />
<path d="M476.73,97.94c-.45,0-.82,.15-1.12,.44-.3,.3-.44,.65-.44,1.07s.15,.77,.44,1.06,.67,.43,1.12,.43,.82-.15,1.12-.44c.3-.3,.44-.66,.44-1.09s-.15-.76-.44-1.04c-.3-.28-.67-.42-1.12-.42Z" />
<path d="M491.12,104.09c-1-.55-2.13-.83-3.4-.83s-2.4,.28-3.41,.83c-1.01,.55-1.8,1.32-2.36,2.3-.57,.98-.85,2.1-.85,3.35s.28,2.36,.85,3.35c.57,.98,1.36,1.76,2.36,2.32,1.01,.56,2.14,.84,3.41,.84s2.4-.28,3.4-.84c1-.56,1.78-1.33,2.35-2.32,.57-.98,.85-2.1,.85-3.35s-.29-2.36-.85-3.35c-.57-.98-1.35-1.75-2.35-2.3Zm.32,7.99c-.37,.68-.88,1.21-1.52,1.58-.65,.38-1.38,.56-2.2,.56s-1.55-.19-2.2-.56c-.65-.38-1.16-.9-1.54-1.58-.38-.68-.56-1.46-.56-2.34s.19-1.66,.56-2.34c.38-.68,.89-1.2,1.54-1.57,.65-.37,1.38-.55,2.2-.55s1.55,.18,2.2,.55c.65,.37,1.16,.89,1.52,1.57,.37,.68,.55,1.46,.55,2.34s-.18,1.66-.55,2.34Z" />
<path d="m508.16 104.67c-0.95-0.94-2.24-1.4-3.85-1.4-1.01 0-1.91 0.18-2.7 0.53s-1.42 0.86-1.88 1.51v-1.92h-2.21v12.72h2.3v-6.55c0-1.36 0.36-2.4 1.08-3.13s1.7-1.09 2.95-1.09c1.1 0 1.95 0.31 2.54 0.94 0.59 0.62 0.89 1.55 0.89 2.78v7.06h2.3v-7.32c0-1.81-0.48-3.18-1.43-4.12z"/>
<g fill="#c1272d">
<path d="M77.97,32.54s.01,0,.02-.01v-11.99l-17.42,5.49s-.08,.02-.12,.03c-.55-.03-1.11-.05-1.68-.05s-1.07,.02-1.59,.04l-17.4-5.46v11.66c-2.62,2.05-4.81,4.52-6.56,7.43-2.56,4.27-3.84,9.16-3.84,14.69s1.3,10.33,3.89,14.59c2.59,4.27,6.26,7.63,11.01,10.09,4.74,2.46,10.26,3.69,16.54,3.69,4.98,0,9.39-.77,13.21-2.3,3.82-1.54,7-3.74,9.52-6.6l-8.5-9.22c-1.84,1.78-3.88,3.11-6.09,3.99-2.22,.89-4.8,1.33-7.73,1.33-3.28,0-6.13-.6-8.55-1.79-2.42-1.19-4.3-2.93-5.63-5.22-.72-1.24-1.24-2.59-1.57-4.04h41.66c.07-.68,.14-1.42,.2-2.2,.07-.78,.1-1.48,.1-2.1,0-5.94-1.26-11.04-3.79-15.31-1.55-2.62-3.45-4.86-5.68-6.74Zm-32.67,17.03c.27-1.71,.75-3.27,1.49-4.66,1.16-2.15,2.78-3.82,4.86-5.02,2.08-1.19,4.49-1.79,7.22-1.79s5.12,.6,7.17,1.79c2.05,1.19,3.65,2.85,4.81,4.97,.77,1.4,1.26,2.98,1.52,4.71h-27.07Z" />
<polygon points="120.58 64.35 105.36 26.84 88.87 26.84 112.01 81.93 128.5 81.93 151.74 26.84 136.38 26.84" />
<path d="m198.23 31.96c-4.64-3.96-11.16-5.94-19.56-5.94-4.37 0-8.67 0.58-12.9 1.74s-7.85 2.8-10.85 4.92l5.73 11.16c1.98-1.57 4.39-2.82 7.22-3.74s5.72-1.38 8.65-1.38c4.3 0 7.49 0.96 9.57 2.87s3.12 4.57 3.12 7.99h-12.7c-5.6 0-10.14 0.7-13.62 2.1s-6.03 3.33-7.63 5.79-2.41 5.32-2.41 8.6 0.82 5.97 2.46 8.5 3.99 4.52 7.07 5.99 6.76 2.2 11.06 2.2c4.85 0 8.81-0.92 11.88-2.76 2.08-1.25 3.71-2.9 4.92-4.93v6.87h14.95v-31.44c0-8.4-2.32-14.57-6.96-18.53zm-9.01 32.56c-0.96 2.46-2.49 4.32-4.61 5.58s-4.51 1.89-7.17 1.89c-2.8 0-5-0.6-6.6-1.79s-2.41-2.82-2.41-4.86c0-1.84 0.7-3.38 2.1-4.61s3.98-1.84 7.73-1.84h10.96v5.63z" />
<rect x="219.63" y="5.95" width="15.97" height="75.98" />
<path d="m289.97 54.08c0 3.35-0.55 6.13-1.64 8.35s-2.59 3.86-4.5 4.92-4.1 1.59-6.55 1.59c-3.55 0-6.3-1.08-8.24-3.23-1.95-2.15-2.92-5.51-2.92-10.09v-28.78h-15.97v31.13c0 5.67 0.99 10.33 2.97 13.98s4.76 6.37 8.35 8.14c3.58 1.78 7.66 2.66 12.24 2.66 4.23 0 8.14-0.97 11.72-2.92 2.09-1.14 3.88-2.6 5.38-4.37v6.47h15.16v-55.09h-15.97v27.24z" />
<path d="m362.57 31.96c-4.64-3.96-11.16-5.94-19.56-5.94-4.37 0-8.67 0.58-12.9 1.74s-7.85 2.8-10.85 4.92l5.73 11.16c1.98-1.57 4.38-2.82 7.22-3.74 2.83-0.92 5.72-1.38 8.65-1.38 4.3 0 7.49 0.96 9.57 2.87s3.12 4.57 3.12 7.99h-12.7c-5.6 0-10.14 0.7-13.62 2.1s-6.03 3.33-7.63 5.79-2.41 5.32-2.41 8.6 0.82 5.97 2.46 8.5 3.99 4.52 7.06 5.99 6.76 2.2 11.06 2.2c4.85 0 8.81-0.92 11.88-2.76 2.08-1.25 3.71-2.9 4.91-4.93v6.87h14.95v-31.44c0-8.4-2.32-14.57-6.96-18.53zm-9.01 32.56c-0.96 2.46-2.49 4.32-4.61 5.58s-4.51 1.89-7.17 1.89c-2.8 0-5-0.6-6.6-1.79s-2.41-2.82-2.41-4.86c0-1.84 0.7-3.38 2.1-4.61s3.98-1.84 7.73-1.84h10.96v5.63z" />
<path d="m408.75 70.05c-2.12 0-3.79-0.63-5.02-1.89s-1.84-3.05-1.84-5.38v-22.42h13.72v-12.29h-13.72v-13.42h-15.97v13.41h-8.5v12.29h8.5v22.63c0 6.55 1.81 11.49 5.43 14.8s8.67 4.97 15.15 4.97c2.46 0 4.83-0.29 7.12-0.87s4.25-1.45 5.89-2.61l-4.3-11.26c-1.78 1.37-3.93 2.05-6.45 2.05z" />
<path d="m466.65 29.45c-4.33-2.29-9.2-3.43-14.59-3.43s-10.62 1.21-15.05 3.64c-4.44 2.42-7.94 5.77-10.5 10.03-2.56 4.27-3.84 9.16-3.84 14.69s1.3 10.33 3.89 14.59c2.59 4.27 6.26 7.63 11.01 10.09 4.74 2.46 10.26 3.69 16.54 3.69 4.98 0 9.38-0.77 13.21-2.3 3.82-1.54 7-3.74 9.52-6.6l-8.5-9.22c-1.84 1.78-3.88 3.11-6.09 3.99-2.22 0.89-4.8 1.33-7.73 1.33-3.28 0-6.13-0.6-8.55-1.79s-4.3-2.93-5.63-5.22c-0.72-1.24-1.24-2.59-1.57-4.04h41.66c0.07-0.68 0.13-1.42 0.2-2.2s0.1-1.48 0.1-2.1c0-5.94-1.26-11.04-3.79-15.31s-5.96-7.54-10.29-9.83zm-28.06 20.12c0.27-1.71 0.75-3.27 1.49-4.66 1.16-2.15 2.78-3.82 4.86-5.02 2.08-1.19 4.49-1.79 7.22-1.79s5.12 0.6 7.17 1.79 3.65 2.85 4.81 4.97c0.77 1.4 1.26 2.98 1.52 4.71h-27.07z" />
<path d="M82.39,18.94v6.17c-.66,.53-1.13,1.39-1.13,2.32,0,1.66,1.33,2.92,2.92,2.92s2.92-1.33,2.92-2.92c0-1.06-.53-1.99-1.33-2.45v-7.23l-3.38,1.19Z" />
<path d="M87.83,10.25L59.44,.1c-.33-.13-.73-.13-1.13,0L29.99,10.25c-1.53,.53-1.53,2.65,0,3.18l28.39,10.08c.33,.13,.73,.13,1.13,0l28.32-10.08c1.46-.53,1.46-2.65,0-3.18Z" />
</g>
</svg>
